<svg xmlns="http://www.w3.org/2000/svg" xmlns:xlink="http://www.w3.org/1999/xlink" id="Layer_1" x="0" y="0" version="1.1" viewBox="0 0 24 24" xml:space="preserve"><path d="M22 20.75H2a2 2 0 0 1-2-2V19a2 2 0 0 0 2 2h20a2 2 0 0 0 2-2v-.25a2 2 0 0 1-2 2z" opacity=".05"/><path fill="#F9C606" d="M18.5 3h-13A5.506 5.506 0 0 0 0 8.5V19a2 2 0 0 0 2 2h20a2 2 0 0 0 2-2V8.5C24 5.467 21.533 3 18.5 3z"/><path fill="#BF6A1E" d="M2 8.5C2 6.57 3.57 5 5.5 5h13C20.43 5 22 6.57 22 8.5H2z"/><path fill="#BF6A1E" d="M2 12h20v7H2z"/><path d="M0 10.25h24v.25H0z" opacity=".05"/><path fill="#FFF" d="M0 10.5h24v.25H0z" opacity=".1"/><path fill="#F9C606" d="M8 9v3.586a1 1 0 0 0 .293.707l1.414 1.414a1 1 0 0 0 .707.293h3.172a1 1 0 0 0 .707-.293l1.414-1.414a1 1 0 0 0 .293-.707V9a1 1 0 0 0-1-1H9a1 1 0 0 0-1 1z"/><path fill="#FFCE51" d="M8 8v5l2 2h4l2-2V8z"/><path fill="#FDB913" d="M10.414 14L9 12.586V9h6v3.586L13.586 14h-3.172z"/><linearGradient id="SVGID_1_" x1="9.857" x2="13.651" y1="8.65" y2="12.444" gradientUnits="userSpaceOnUse"><stop offset="0" stop-color="#000" stop-opacity=".1"/><stop offset="1" stop-color="#000" stop-opacity="0"/></linearGradient><path fill="url(#SVGID_1_)" d="M10.414 14L9 12.586V9h6v3.586L13.586 14h-3.172z"/><path fill="#9A4912" d="M3 13h3v1H3z"/><path fill="#9A4912" d="M13.5 6h3v1h-3z"/><path fill="#9A4912" d="M8 16.5h5v1H8z"/><path fill="#9A4912" d="M4.5 6.5h5v1h-5z"/><path fill="#9A4912" d="M18 13h3v1h-3z"/><path fill="#9A4912" d="M16 16.5h3v1h-3z"/><linearGradient id="SVGID_2_" x1="15.689" x2="15.703" y1="8.278" y2="8.292" gradientUnits="userSpaceOnUse"><stop offset="0" stop-color="#000" stop-opacity=".1"/><stop offset="1" stop-color="#000" stop-opacity="0"/></linearGradient><path fill="url(#SVGID_2_)" d="M15.686 8.279c.006.006.015.008.021.014l-.018-.018-.003.004z"/><path fill="#B57916" d="M13 11c0-.551-.449-1-1-1s-1 .449-1 1c0 .324.167.595.408.776L11 13h2l-.408-1.224A.967.967 0 0 0 13 11z"/><linearGradient id="SVGID_3_" x1="11.013" x2="12.76" y1="10.806" y2="12.553" gradientUnits="userSpaceOnUse"><stop offset="0" stop-color="#000" stop-opacity=".2"/><stop offset="1" stop-color="#000" stop-opacity="0"/></linearGradient><path fill="url(#SVGID_3_)" d="M13 11c0-.551-.449-1-1-1s-1 .449-1 1c0 .324.167.595.408.776L11 13h2l-.408-1.224A.967.967 0 0 0 13 11z"/><g><linearGradient id="SVGID_4_" x1="13.274" x2="21.122" y1="11.774" y2="19.622" gradientUnits="userSpaceOnUse"><stop offset="0" stop-color="#000" stop-opacity=".1"/><stop offset="1" stop-color="#000" stop-opacity="0"/></linearGradient><path fill="url(#SVGID_4_)" d="M24 19v-3l-8-8v5l-2 2h-4l6 6h6a2 2 0 0 0 2-2z"/></g><linearGradient id="SVGID_5_" x1=".093" x2="24.465" y1="7.083" y2="18.448" gradientUnits="userSpaceOnUse"><stop offset="0" stop-color="#FFF" stop-opacity=".2"/><stop offset="1" stop-color="#FFF" stop-opacity="0"/></linearGradient><path fill="url(#SVGID_5_)" d="M18.5 3h-13A5.506 5.506 0 0 0 0 8.5V19a2 2 0 0 0 2 2h20a2 2 0 0 0 2-2V8.5C24 5.467 21.533 3 18.5 3z"/><metadata><rdf:RDF xmlns:dc="http://purl.org/dc/elements/1.1/" xmlns:rdf="http://www.w3.org/1999/02/22-rdf-syntax-ns#" xmlns:rdfs="http://www.w3.org/2000/01/rdf-schema#"><rdf:Description about="https://iconscout.com/legal#licenses" dc:date="2017-11-13" dc:description="treasure,chest,box,value,pirate" dc:format="image/svg+xml" dc:language="en" dc:publisher="Iconscout" dc:title="treasure,chest,box,value,pirate"><dc:creator><rdf:Bag><rdf:li>Those Icons</rdf:li></rdf:Bag></dc:creator></rdf:Description></rdf:RDF></metadata></svg>